<svg width="162" height="48" viewBox="0 0 162 48" fill="none" xmlns="http://www.w3.org/2000/svg">
<path d="M1.204 15V5.102H4.676C5.17067 5.102 5.61867 5.144 6.02 5.228C6.42133 5.30267 6.76667 5.43333 7.056 5.62C7.35467 5.80667 7.58333 6.05867 7.742 6.376C7.90067 6.69333 7.98 7.09467 7.98 7.58C7.98 8.084 7.86333 8.532 7.63 8.924C7.406 9.316 7.056 9.60533 6.58 9.792C7.21467 9.904 7.69067 10.1653 8.008 10.576C8.32533 10.9773 8.484 11.514 8.484 12.186C8.484 12.7367 8.38133 13.194 8.176 13.558C7.97067 13.922 7.686 14.2113 7.322 14.426C6.96733 14.6313 6.55667 14.7807 6.09 14.874C5.62333 14.958 5.12867 15 4.606 15H1.204ZM2.422 13.894H4.564C4.85333 13.894 5.152 13.88 5.46 13.852C5.77733 13.8147 6.07133 13.7447 6.342 13.642C6.61267 13.53 6.832 13.3573 7 13.124C7.168 12.8907 7.252 12.578 7.252 12.186C7.252 11.85 7.18667 11.5747 7.056 11.36C6.93467 11.1453 6.76667 10.9773 6.552 10.856C6.34667 10.7347 6.10867 10.6507 5.838 10.604C5.56733 10.5573 5.292 10.534 5.012 10.534H2.422V13.894ZM2.422 9.442H4.326C4.67133 9.442 4.99333 9.414 5.292 9.358C5.59067 9.29267 5.852 9.19 6.076 9.05C6.3 8.91 6.47267 8.728 6.594 8.504C6.72467 8.28 6.79 8 6.79 7.664C6.79933 7.23467 6.706 6.91733 6.51 6.712C6.314 6.50667 6.05267 6.37133 5.726 6.306C5.40867 6.24067 5.06333 6.208 4.69 6.208H2.422V9.442ZM10.3918 15V5.102H13.9058C14.9325 5.102 15.7912 5.312 16.4818 5.732C17.1725 6.14267 17.6905 6.72133 18.0358 7.468C18.3905 8.20533 18.5678 9.06867 18.5678 10.058C18.5678 11.038 18.3952 11.9013 18.0498 12.648C17.7045 13.3853 17.1865 13.964 16.4958 14.384C15.8052 14.7947 14.9418 15 13.9058 15H10.3918ZM11.6098 13.894H13.8218C14.6245 13.894 15.2825 13.7307 15.7958 13.404C16.3092 13.0773 16.6918 12.6293 16.9438 12.06C17.1958 11.4813 17.3218 10.814 17.3218 10.058C17.3218 9.32067 17.1958 8.66267 16.9438 8.084C16.7012 7.50533 16.3278 7.048 15.8238 6.712C15.3198 6.376 14.6758 6.208 13.8918 6.208H11.6098V13.894ZM24.2414 15V5.102H30.8914V6.208H25.4594V9.918H30.2054V11.038H25.4594V15H24.2414ZM30.847 15L34.529 5.102H36.279L39.947 15H38.631L37.847 12.872H32.947L32.163 15H30.847ZM33.353 11.766H37.441L35.397 6.166L33.353 11.766ZM44.6689 15.112C44.0435 15.112 43.4509 15.028 42.8909 14.86C42.3402 14.6827 41.8689 14.398 41.4769 14.006C41.0849 13.6047 40.8189 13.0727 40.6789 12.41H41.9529C42.0835 12.83 42.2935 13.1567 42.5829 13.39C42.8815 13.6233 43.2222 13.7867 43.6049 13.88C43.9875 13.964 44.3702 14.006 44.7529 14.006C45.1355 14.006 45.4902 13.9547 45.8169 13.852C46.1529 13.74 46.4235 13.5627 46.6289 13.32C46.8435 13.0773 46.9509 12.7647 46.9509 12.382C46.9509 12.0833 46.8949 11.8407 46.7829 11.654C46.6802 11.4673 46.5309 11.318 46.3349 11.206C46.1482 11.0847 45.9242 10.9867 45.6629 10.912C45.3175 10.8 44.9489 10.7067 44.5569 10.632C44.1649 10.5573 43.7775 10.4687 43.3949 10.366C43.0215 10.2633 42.6715 10.1327 42.3449 9.974C42.1675 9.88067 41.9949 9.76867 41.8269 9.638C41.6682 9.498 41.5282 9.33933 41.4069 9.162C41.2949 8.97533 41.2015 8.76533 41.1269 8.532C41.0615 8.29867 41.0289 8.042 41.0289 7.762C41.0289 7.342 41.0942 6.978 41.2249 6.67C41.3555 6.362 41.5329 6.10067 41.7569 5.886C41.9809 5.67133 42.2422 5.49867 42.5409 5.368C42.8395 5.23733 43.1569 5.144 43.4929 5.088C43.8382 5.02267 44.1835 4.99 44.5289 4.99C45.0982 4.99 45.6302 5.07867 46.1249 5.256C46.6289 5.424 47.0442 5.69933 47.3709 6.082C47.7069 6.46467 47.8889 6.98267 47.9169 7.636H46.7269C46.6802 7.244 46.5495 6.936 46.3349 6.712C46.1202 6.488 45.8542 6.32933 45.5369 6.236C45.2195 6.14267 44.8835 6.096 44.5289 6.096C44.2675 6.096 44.0015 6.11933 43.7309 6.166C43.4695 6.21267 43.2269 6.29667 43.0029 6.418C42.7882 6.53 42.6155 6.68867 42.4849 6.894C42.3542 7.09 42.2889 7.342 42.2889 7.65C42.2889 7.89267 42.3309 8.10733 42.4149 8.294C42.5082 8.48067 42.6295 8.63933 42.7789 8.77C42.9375 8.89133 43.1102 8.994 43.2969 9.078C43.7449 9.26467 44.2395 9.40467 44.7809 9.498C45.3315 9.582 45.8449 9.708 46.3209 9.876C46.6009 9.96933 46.8575 10.086 47.0909 10.226C47.3242 10.366 47.5202 10.5293 47.6789 10.716C47.8469 10.9027 47.9729 11.1173 48.0569 11.36C48.1502 11.5933 48.1969 11.8593 48.1969 12.158C48.1969 12.6993 48.1035 13.1613 47.9169 13.544C47.7302 13.9173 47.4735 14.2207 47.1469 14.454C46.8202 14.6873 46.4422 14.8553 46.0129 14.958C45.5929 15.0607 45.1449 15.112 44.6689 15.112ZM50.2317 15V5.102H51.4497V9.582H56.7557V5.102H57.9737V15H56.7557V10.702H51.4497V15H50.2317ZM60.4035 15V5.102H61.6215V15H60.4035ZM68.1699 15.112C67.1433 15.112 66.2846 14.8927 65.5939 14.454C64.9033 14.0153 64.3806 13.4133 64.0259 12.648C63.6806 11.8827 63.5079 11.0193 63.5079 10.058C63.5079 9.08733 63.6806 8.21933 64.0259 7.454C64.3806 6.68867 64.9033 6.08667 65.5939 5.648C66.2846 5.20933 67.1433 4.99 68.1699 4.99C69.1966 4.99 70.0506 5.20933 70.7319 5.648C71.4226 6.08667 71.9406 6.68867 72.2859 7.454C72.6406 8.21933 72.8179 9.08733 72.8179 10.058C72.8179 11.0193 72.6406 11.8827 72.2859 12.648C71.9406 13.4133 71.4226 14.0153 70.7319 14.454C70.0506 14.8927 69.1966 15.112 68.1699 15.112ZM68.1699 14.006C68.9539 14.006 69.5979 13.8287 70.1019 13.474C70.6059 13.11 70.9746 12.6293 71.2079 12.032C71.4506 11.4347 71.5719 10.7767 71.5719 10.058C71.5719 9.51667 71.5019 9.008 71.3619 8.532C71.2313 8.04667 71.0259 7.622 70.7459 7.258C70.4659 6.894 70.1113 6.60933 69.6819 6.404C69.2526 6.19867 68.7486 6.096 68.1699 6.096C67.3953 6.096 66.7513 6.278 66.2379 6.642C65.7339 7.006 65.3559 7.48667 65.1039 8.084C64.8613 8.68133 64.7399 9.33933 64.7399 10.058C64.7399 10.7673 64.8613 11.4207 65.1039 12.018C65.3466 12.6153 65.7199 13.096 66.2239 13.46C66.7373 13.824 67.3859 14.006 68.1699 14.006ZM74.7043 15V5.102H76.2583L81.4243 13.348V5.102H82.6423V15H81.1163L75.9223 6.782V15H74.7043ZM88.8547 15V5.102H90.0727V9.582H95.3787V5.102H96.5967V15H95.3787V10.702H90.0727V15H88.8547ZM103.143 15.112C102.116 15.112 101.257 14.8927 100.567 14.454C99.8759 14.0153 99.3533 13.4133 98.9986 12.648C98.6533 11.8827 98.4806 11.0193 98.4806 10.058C98.4806 9.08733 98.6533 8.21933 98.9986 7.454C99.3533 6.68867 99.8759 6.08667 100.567 5.648C101.257 5.20933 102.116 4.99 103.143 4.99C104.169 4.99 105.023 5.20933 105.705 5.648C106.395 6.08667 106.913 6.68867 107.259 7.454C107.613 8.21933 107.791 9.08733 107.791 10.058C107.791 11.0193 107.613 11.8827 107.259 12.648C106.913 13.4133 106.395 14.0153 105.705 14.454C105.023 14.8927 104.169 15.112 103.143 15.112ZM103.143 14.006C103.927 14.006 104.571 13.8287 105.075 13.474C105.579 13.11 105.947 12.6293 106.181 12.032C106.423 11.4347 106.545 10.7767 106.545 10.058C106.545 9.51667 106.475 9.008 106.335 8.532C106.204 8.04667 105.999 7.622 105.719 7.258C105.439 6.894 105.084 6.60933 104.655 6.404C104.225 6.19867 103.721 6.096 103.143 6.096C102.368 6.096 101.724 6.278 101.211 6.642C100.707 7.006 100.329 7.48667 100.077 8.084C99.8339 8.68133 99.7126 9.33933 99.7126 10.058C99.7126 10.7673 99.8339 11.4207 100.077 12.018C100.319 12.6153 100.693 13.096 101.197 13.46C101.71 13.824 102.359 14.006 103.143 14.006ZM113.541 15.112C112.617 15.112 111.866 14.9207 111.287 14.538C110.708 14.1553 110.284 13.6373 110.013 12.984C109.742 12.3213 109.607 11.57 109.607 10.73V5.102H110.825V10.716C110.825 11.3133 110.909 11.864 111.077 12.368C111.254 12.8627 111.544 13.2593 111.945 13.558C112.346 13.8567 112.883 14.006 113.555 14.006C114.236 14.006 114.768 13.8567 115.151 13.558C115.543 13.2593 115.823 12.8627 115.991 12.368C116.159 11.864 116.243 11.3133 116.243 10.716V5.102H117.475V10.73C117.475 11.5607 117.34 12.3073 117.069 12.97C116.798 13.6327 116.374 14.1553 115.795 14.538C115.216 14.9207 114.465 15.112 113.541 15.112ZM123.405 15.112C122.78 15.112 122.187 15.028 121.627 14.86C121.077 14.6827 120.605 14.398 120.213 14.006C119.821 13.6047 119.555 13.0727 119.415 12.41H120.689C120.82 12.83 121.03 13.1567 121.319 13.39C121.618 13.6233 121.959 13.7867 122.341 13.88C122.724 13.964 123.107 14.006 123.489 14.006C123.872 14.006 124.227 13.9547 124.553 13.852C124.889 13.74 125.16 13.5627 125.365 13.32C125.58 13.0773 125.687 12.7647 125.687 12.382C125.687 12.0833 125.631 11.8407 125.519 11.654C125.417 11.4673 125.267 11.318 125.071 11.206C124.885 11.0847 124.661 10.9867 124.399 10.912C124.054 10.8 123.685 10.7067 123.293 10.632C122.901 10.5573 122.514 10.4687 122.131 10.366C121.758 10.2633 121.408 10.1327 121.081 9.974C120.904 9.88067 120.731 9.76867 120.563 9.638C120.405 9.498 120.265 9.33933 120.143 9.162C120.031 8.97533 119.938 8.76533 119.863 8.532C119.798 8.29867 119.765 8.042 119.765 7.762C119.765 7.342 119.831 6.978 119.961 6.67C120.092 6.362 120.269 6.10067 120.493 5.886C120.717 5.67133 120.979 5.49867 121.277 5.368C121.576 5.23733 121.893 5.144 122.229 5.088C122.575 5.02267 122.92 4.99 123.265 4.99C123.835 4.99 124.367 5.07867 124.861 5.256C125.365 5.424 125.781 5.69933 126.107 6.082C126.443 6.46467 126.625 6.98267 126.653 7.636H125.463C125.417 7.244 125.286 6.936 125.071 6.712C124.857 6.488 124.591 6.32933 124.273 6.236C123.956 6.14267 123.62 6.096 123.265 6.096C123.004 6.096 122.738 6.11933 122.467 6.166C122.206 6.21267 121.963 6.29667 121.739 6.418C121.525 6.53 121.352 6.68867 121.221 6.894C121.091 7.09 121.025 7.342 121.025 7.65C121.025 7.89267 121.067 8.10733 121.151 8.294C121.245 8.48067 121.366 8.63933 121.515 8.77C121.674 8.89133 121.847 8.994 122.033 9.078C122.481 9.26467 122.976 9.40467 123.517 9.498C124.068 9.582 124.581 9.708 125.057 9.876C125.337 9.96933 125.594 10.086 125.827 10.226C126.061 10.366 126.257 10.5293 126.415 10.716C126.583 10.9027 126.709 11.1173 126.793 11.36C126.887 11.5933 126.933 11.8593 126.933 12.158C126.933 12.6993 126.84 13.1613 126.653 13.544C126.467 13.9173 126.21 14.2207 125.883 14.454C125.557 14.6873 125.179 14.8553 124.749 14.958C124.329 15.0607 123.881 15.112 123.405 15.112ZM128.968 15V5.102H135.618V6.208H130.186V9.54H135.072V10.66H130.186V13.894H135.618V15H128.968Z" fill="#475569"/>
<path d="M159.966 8.94894L158.832 7.63226C158.616 7.38226 158.441 6.9156 158.441 6.58226V5.1656C158.441 4.28226 157.716 3.55726 156.832 3.55726H155.416C155.091 3.55726 154.616 3.38226 154.366 3.1656L153.049 2.03226C152.474 1.5406 151.532 1.5406 150.949 2.03226L149.641 3.17393C149.391 3.38226 148.916 3.55726 148.591 3.55726H147.149C146.266 3.55726 145.541 4.28226 145.541 5.1656V6.5906C145.541 6.9156 145.366 7.38226 145.157 7.63226L144.032 8.95727C143.549 9.53227 143.549 10.4656 144.032 11.0406L145.157 12.3656C145.366 12.6156 145.541 13.0823 145.541 13.4073V14.8323C145.541 15.7156 146.266 16.4406 147.149 16.4406H148.591C148.916 16.4406 149.391 16.6156 149.641 16.8323L150.957 17.9656C151.532 18.4573 152.474 18.4573 153.057 17.9656L154.374 16.8323C154.624 16.6156 155.091 16.4406 155.424 16.4406H156.841C157.724 16.4406 158.449 15.7156 158.449 14.8323V13.4156C158.449 13.0906 158.624 12.6156 158.841 12.3656L159.974 11.0489C160.457 10.4739 160.457 9.52394 159.966 8.94894ZM155.466 8.42394L151.441 12.4489C151.324 12.5656 151.166 12.6323 150.999 12.6323C150.832 12.6323 150.674 12.5656 150.557 12.4489L148.541 10.4323C148.299 10.1906 148.299 9.79061 148.541 9.54894C148.782 9.30727 149.182 9.30727 149.424 9.54894L150.999 11.1239L154.582 7.5406C154.824 7.29893 155.224 7.29893 155.466 7.5406C155.707 7.78226 155.707 8.18226 155.466 8.42394Z" fill="#3B82F6"/>
<path d="M16.5835 28.0002H138.154L124.582 48H0L16.5835 28.0002Z" fill="url(#paint0_linear_1_863)"/>
<path d="M13.5 28H49L36 47.9998H0L13.5 28Z" fill="url(#paint1_linear_1_863)"/>
<g clip-path="url(#clip0_1_863)">
<path d="M25.1413 33.9759L18.6241 42.1767L25.1598 32.4533L25.1413 33.9759Z" fill="white"/>
<path d="M26.9325 40.9273L20.7286 45.7061L26.7083 40.0474L26.9325 40.9273Z" fill="white"/>
<path d="M26.3594 38.9829L19.047 45.544L25.3293 37.9071L26.155 38.1205L26.3594 38.9829Z" fill="white"/>
<path d="M24.3097 37.5427L18.8916 43.7878L23.4673 37.3087L24.3097 37.5427Z" fill="white"/>
<path d="M29.9238 39.1833L31.3817 39.1639L22.4865 45.9999L29.9238 39.1833Z" fill="white"/>
<path d="M26.0907 34.9874L25.9533 31.6251L28.477 33.7176L31.4964 32.5421L30.3709 35.6954L32.3745 38.3311L29.155 38.1876L27.3738 40.9921L26.5097 37.7499L23.4054 36.8475L26.0907 34.9874Z" fill="white"/>
</g>
<path d="M53.87 41.9999V34.93H56.52C56.9133 34.93 57.2633 34.97 57.57 35.05C57.8833 35.13 58.1499 35.2566 58.3699 35.43C58.5899 35.6033 58.7566 35.8333 58.8699 36.12C58.9899 36.4 59.0499 36.74 59.0499 37.14C59.0499 37.5333 58.9766 37.87 58.8299 38.1499C58.6833 38.4233 58.4899 38.6466 58.2499 38.8199C58.0099 38.9933 57.75 39.1199 57.47 39.1999L58.9499 41.9999H57.9999L56.59 39.3499H54.74V41.9999H53.87ZM54.74 38.5599H56.24C56.5 38.5599 56.7433 38.5399 56.97 38.4999C57.2033 38.4599 57.4066 38.3899 57.58 38.2899C57.76 38.1833 57.9 38.0366 57.9999 37.85C58.0999 37.6566 58.1533 37.41 58.1599 37.11C58.1666 36.77 58.1033 36.5 57.9699 36.3C57.8366 36.0933 57.64 35.9466 57.38 35.86C57.12 35.7666 56.8033 35.72 56.43 35.72H54.74V38.5599ZM60.252 41.9999V36.73H61.1019V41.9999H60.252ZM60.672 35.95C60.4986 35.95 60.3586 35.8966 60.252 35.79C60.152 35.6833 60.102 35.5466 60.102 35.38C60.102 35.2133 60.1553 35.08 60.262 34.98C60.3686 34.8733 60.5053 34.82 60.672 34.82C60.8253 34.82 60.9586 34.8733 61.0719 34.98C61.1919 35.0866 61.2519 35.22 61.2519 35.38C61.2519 35.5466 61.1953 35.6833 61.0819 35.79C60.9686 35.8966 60.832 35.95 60.672 35.95ZM64.3594 42.0599C64.1194 42.0599 63.8761 42.0366 63.6294 41.9899C63.3894 41.9432 63.1628 41.8632 62.9494 41.7499C62.7428 41.6366 62.5694 41.4832 62.4294 41.2899C62.2894 41.0966 62.1994 40.8566 62.1594 40.5699H63.0194C63.0861 40.7499 63.1928 40.8966 63.3394 41.0099C63.4928 41.1166 63.6628 41.1932 63.8494 41.2399C64.0428 41.2866 64.2261 41.3099 64.3994 41.3099C64.5061 41.3099 64.6294 41.3032 64.7694 41.2899C64.9094 41.2766 65.0427 41.2466 65.1694 41.1999C65.3027 41.1466 65.4094 41.0699 65.4894 40.9699C65.5761 40.8699 65.6194 40.7299 65.6194 40.5499C65.6194 40.4166 65.5894 40.3066 65.5294 40.2199C65.4694 40.1333 65.3861 40.0633 65.2794 40.0099C65.1727 39.9499 65.0427 39.9066 64.8894 39.8799C64.5761 39.8133 64.2394 39.7499 63.8794 39.6899C63.5261 39.6299 63.2128 39.5166 62.9394 39.3499C62.8461 39.2899 62.7594 39.2233 62.6794 39.1499C62.6061 39.0699 62.5428 38.9833 62.4894 38.8899C62.4361 38.7899 62.3928 38.6833 62.3594 38.5699C62.3328 38.4499 62.3194 38.3199 62.3194 38.1799C62.3194 37.9199 62.3694 37.6966 62.4694 37.51C62.5761 37.3166 62.7228 37.16 62.9094 37.04C63.0961 36.9133 63.3094 36.82 63.5494 36.76C63.7961 36.7 64.0594 36.67 64.3394 36.67C64.6861 36.67 64.9961 36.7266 65.2694 36.84C65.5494 36.9466 65.7794 37.1066 65.9594 37.32C66.1394 37.5266 66.2461 37.7833 66.2794 38.0899H65.4894C65.4427 37.8966 65.3161 37.74 65.1094 37.62C64.9027 37.4933 64.6394 37.43 64.3194 37.43C64.2128 37.43 64.0928 37.44 63.9594 37.46C63.8261 37.4733 63.6994 37.5066 63.5794 37.56C63.4594 37.6066 63.3594 37.68 63.2794 37.78C63.1994 37.8733 63.1594 37.9999 63.1594 38.1599C63.1594 38.3066 63.1961 38.4299 63.2694 38.5299C63.3494 38.6299 63.4594 38.7099 63.5994 38.7699C63.7394 38.8299 63.8994 38.8799 64.0794 38.9199C64.3127 38.9666 64.5694 39.0166 64.8494 39.0699C65.1294 39.1166 65.3494 39.1666 65.5094 39.2199C65.7227 39.2866 65.8994 39.3799 66.0394 39.4999C66.1861 39.6199 66.2927 39.7633 66.3594 39.9299C66.4327 40.0966 66.4694 40.2899 66.4694 40.5099C66.4694 40.8233 66.4061 41.0799 66.2794 41.2799C66.1594 41.4799 65.9961 41.6366 65.7894 41.7499C65.5827 41.8632 65.3527 41.9432 65.0994 41.9899C64.8527 42.0366 64.6061 42.0599 64.3594 42.0599ZM67.5273 41.9999V36.73H68.3773V41.9999H67.5273ZM67.9473 35.95C67.7739 35.95 67.6339 35.8966 67.5273 35.79C67.4273 35.6833 67.3773 35.5466 67.3773 35.38C67.3773 35.2133 67.4306 35.08 67.5373 34.98C67.6439 34.8733 67.7806 34.82 67.9473 34.82C68.1006 34.82 68.2339 34.8733 68.3473 34.98C68.4673 35.0866 68.5273 35.22 68.5273 35.38C68.5273 35.5466 68.4706 35.6833 68.3573 35.79C68.2439 35.8966 68.1073 35.95 67.9473 35.95ZM69.7148 41.9999V36.73H70.5347L70.5747 37.53C70.6947 37.3366 70.8481 37.1766 71.0347 37.05C71.2214 36.9233 71.4247 36.83 71.6447 36.77C71.8714 36.7033 72.0914 36.67 72.3047 36.67C72.8181 36.67 73.218 36.7766 73.5047 36.99C73.798 37.2033 74.0047 37.4933 74.1247 37.86C74.2514 38.2199 74.3147 38.6299 74.3147 39.0899V41.9999H73.4647V39.3199C73.4647 39.0733 73.448 38.8366 73.4147 38.6099C73.388 38.3833 73.328 38.1799 73.2347 37.9999C73.148 37.82 73.0214 37.68 72.8547 37.58C72.6881 37.4733 72.4647 37.42 72.1847 37.42C71.8381 37.42 71.5414 37.5166 71.2947 37.71C71.0547 37.9033 70.8714 38.1633 70.7447 38.4899C70.6247 38.8166 70.5647 39.1833 70.5647 39.5899V41.9999H69.7148ZM77.9129 44.3599C77.5529 44.3599 77.2195 44.3032 76.9129 44.1899C76.6062 44.0832 76.3462 43.9132 76.1329 43.6799C75.9196 43.4466 75.7762 43.1499 75.7029 42.7899H76.5829C76.6362 42.9899 76.7362 43.1499 76.8829 43.2699C77.0295 43.3899 77.1995 43.4732 77.3929 43.5199C77.5862 43.5732 77.7762 43.5999 77.9629 43.5999C78.3229 43.5999 78.6129 43.5266 78.8329 43.3799C79.0595 43.2399 79.2229 43.0432 79.3229 42.7899C79.4229 42.5432 79.4729 42.2599 79.4729 41.9399V41.2099C79.3595 41.4099 79.2095 41.5732 79.0229 41.6999C78.8362 41.8266 78.6329 41.9199 78.4129 41.9799C78.1929 42.0332 77.9662 42.0599 77.7329 42.0599C77.1995 42.0599 76.7629 41.9432 76.4229 41.7099C76.0829 41.4699 75.8296 41.1499 75.6629 40.7499C75.5029 40.3433 75.4229 39.8866 75.4229 39.3799C75.4229 38.8733 75.5062 38.4166 75.6729 38.0099C75.8396 37.5966 76.0962 37.27 76.4429 37.03C76.7895 36.79 77.2329 36.67 77.7729 36.67C78.0795 36.67 78.3895 36.7266 78.7029 36.84C79.0162 36.9533 79.2729 37.1366 79.4729 37.39L79.5129 36.73H80.3228V41.9599C80.3228 42.4532 80.2328 42.8799 80.0528 43.2399C79.8795 43.5999 79.6129 43.8766 79.2529 44.0699C78.8995 44.2632 78.4529 44.3599 77.9129 44.3599ZM77.8529 41.3099C78.2062 41.3099 78.5029 41.2199 78.7429 41.0399C78.9829 40.8599 79.1662 40.6199 79.2929 40.3199C79.4195 40.0199 79.4829 39.6933 79.4829 39.3399C79.4829 38.9733 79.4195 38.6466 79.2929 38.3599C79.1729 38.0733 78.9929 37.8466 78.7529 37.68C78.5129 37.5133 78.2095 37.43 77.8429 37.43C77.4629 37.43 77.1562 37.5166 76.9229 37.69C76.6962 37.8633 76.5296 38.0966 76.4229 38.3899C76.3229 38.6833 76.2729 39.0099 76.2729 39.3699C76.2729 39.7433 76.3262 40.0766 76.4329 40.3699C76.5396 40.6633 76.7095 40.8933 76.9429 41.0599C77.1762 41.2266 77.4795 41.3099 77.8529 41.3099ZM87.1032 42.0799C86.6566 42.0799 86.2333 42.0199 85.8333 41.8999C85.4399 41.7732 85.1033 41.5699 84.8233 41.2899C84.5433 41.0033 84.3533 40.6233 84.2533 40.1499H85.1633C85.2566 40.4499 85.4066 40.6833 85.6133 40.8499C85.8266 41.0166 86.0699 41.1333 86.3433 41.1999C86.6166 41.2599 86.8899 41.2899 87.1632 41.2899C87.4366 41.2899 87.6899 41.2532 87.9232 41.1799C88.1632 41.0999 88.3566 40.9733 88.5032 40.7999C88.6566 40.6266 88.7332 40.4033 88.7332 40.1299C88.7332 39.9166 88.6932 39.7433 88.6132 39.6099C88.5399 39.4766 88.4332 39.3699 88.2932 39.2899C88.1599 39.2033 87.9999 39.1333 87.8132 39.0799C87.5666 38.9999 87.3032 38.9333 87.0232 38.8799C86.7432 38.8266 86.4666 38.7633 86.1933 38.6899C85.9266 38.6166 85.6766 38.5233 85.4433 38.4099C85.3166 38.3433 85.1933 38.2633 85.0733 38.1699C84.9599 38.0699 84.8599 37.9566 84.7733 37.83C84.6933 37.6966 84.6266 37.5466 84.5733 37.38C84.5266 37.2133 84.5033 37.03 84.5033 36.83C84.5033 36.53 84.5499 36.27 84.6433 36.05C84.7366 35.83 84.8633 35.6433 85.0233 35.49C85.1833 35.3366 85.3699 35.2133 85.5833 35.12C85.7966 35.0266 86.0233 34.96 86.2633 34.92C86.5099 34.8733 86.7566 34.85 87.0032 34.85C87.4099 34.85 87.7899 34.9133 88.1432 35.04C88.5032 35.16 88.7999 35.3566 89.0332 35.63C89.2732 35.9033 89.4032 36.2733 89.4232 36.74H88.5732C88.5399 36.46 88.4466 36.24 88.2932 36.08C88.1399 35.92 87.9499 35.8066 87.7232 35.74C87.4966 35.6733 87.2566 35.64 87.0032 35.64C86.8166 35.64 86.6266 35.6566 86.4333 35.69C86.2466 35.7233 86.0733 35.7833 85.9133 35.87C85.7599 35.95 85.6366 36.0633 85.5433 36.21C85.4499 36.35 85.4033 36.53 85.4033 36.75C85.4033 36.9233 85.4333 37.0766 85.4933 37.21C85.5599 37.3433 85.6466 37.4566 85.7533 37.55C85.8666 37.6366 85.9899 37.71 86.1233 37.77C86.4433 37.9033 86.7966 38.0033 87.1832 38.0699C87.5766 38.1299 87.9432 38.2199 88.2832 38.3399C88.4832 38.4066 88.6666 38.4899 88.8332 38.5899C88.9999 38.6899 89.1399 38.8066 89.2532 38.9399C89.3732 39.0733 89.4632 39.2266 89.5232 39.3999C89.5899 39.5666 89.6232 39.7566 89.6232 39.9699C89.6232 40.3566 89.5566 40.6866 89.4232 40.9599C89.2899 41.2266 89.1066 41.4432 88.8732 41.6099C88.6399 41.7766 88.3699 41.8966 88.0632 41.9699C87.7632 42.0432 87.4432 42.0799 87.1032 42.0799ZM92.8566 42.0599C92.3033 42.0599 91.9133 41.9099 91.6866 41.6099C91.4666 41.3099 91.3566 40.8833 91.3566 40.3299V37.48H90.4966V36.73H91.3566V35.15H92.2066V36.73H93.8266V37.48H92.2066V40.2199C92.2066 40.4199 92.2233 40.6033 92.2566 40.7699C92.29 40.9299 92.36 41.0599 92.4666 41.1599C92.5733 41.2532 92.7333 41.3032 92.9466 41.3099C93.1 41.3099 93.2333 41.2832 93.3466 41.2299C93.4666 41.1766 93.5666 41.1133 93.6466 41.0399L94.0166 41.6599C93.9033 41.7532 93.7833 41.8299 93.6566 41.8899C93.5366 41.9499 93.41 41.9932 93.2766 42.0199C93.15 42.0466 93.01 42.0599 92.8566 42.0599ZM96.5314 42.0599C96.2914 42.0599 96.0581 42.0299 95.8314 41.9699C95.6114 41.9032 95.4114 41.8066 95.2314 41.6799C95.0581 41.5466 94.9181 41.3832 94.8114 41.1899C94.7114 40.9899 94.6615 40.7599 94.6615 40.4999C94.6615 40.1999 94.7148 39.9466 94.8214 39.7399C94.9348 39.5333 95.0848 39.3699 95.2714 39.2499C95.4581 39.1299 95.6748 39.0433 95.9214 38.9899C96.1681 38.9366 96.4248 38.9099 96.6914 38.9099H98.2414C98.2414 38.6099 98.1981 38.3499 98.1114 38.1299C98.0314 37.9099 97.8981 37.74 97.7114 37.62C97.5248 37.4933 97.2781 37.43 96.9714 37.43C96.7848 37.43 96.6114 37.45 96.4514 37.49C96.2914 37.53 96.1548 37.5933 96.0414 37.68C95.9281 37.7666 95.8448 37.8833 95.7914 38.0299H94.8814C94.9281 37.79 95.0181 37.5866 95.1514 37.42C95.2914 37.2466 95.4581 37.1066 95.6514 37C95.8514 36.8866 96.0648 36.8033 96.2914 36.75C96.5181 36.6966 96.7448 36.67 96.9714 36.67C97.7314 36.67 98.2714 36.8933 98.5914 37.34C98.9114 37.7866 99.0714 38.3899 99.0714 39.1499V41.9999H98.3614L98.3114 41.3299C98.1647 41.5299 97.9881 41.6832 97.7814 41.7899C97.5748 41.8966 97.3614 41.9666 97.1414 41.9999C96.9281 42.0399 96.7248 42.0599 96.5314 42.0599ZM96.6114 41.3099C96.9448 41.3099 97.2314 41.2566 97.4714 41.1499C97.7181 41.0366 97.9081 40.8733 98.0414 40.6599C98.1747 40.4466 98.2414 40.1866 98.2414 39.8799V39.6199H97.3114C97.0914 39.6199 96.8748 39.6233 96.6614 39.6299C96.4481 39.6366 96.2548 39.6633 96.0814 39.7099C95.9081 39.7566 95.7681 39.8366 95.6614 39.9499C95.5614 40.0633 95.5114 40.2266 95.5114 40.4399C95.5114 40.6399 95.5614 40.8033 95.6614 40.9299C95.7681 41.0566 95.9048 41.1533 96.0714 41.2199C96.2448 41.2799 96.4248 41.3099 96.6114 41.3099ZM100.388 41.9999V36.73H101.208L101.248 37.55C101.382 37.3433 101.535 37.1766 101.708 37.05C101.888 36.9233 102.085 36.83 102.298 36.77C102.518 36.7033 102.755 36.67 103.008 36.67C103.055 36.67 103.098 36.67 103.138 36.67C103.185 36.67 103.232 36.67 103.278 36.67V37.47H102.968C102.555 37.47 102.218 37.56 101.958 37.74C101.705 37.9133 101.522 38.1499 101.408 38.4499C101.295 38.7433 101.238 39.0699 101.238 39.4299V41.9999H100.388Z" fill="white"/>
<defs>
<linearGradient id="paint0_linear_1_863" x1="275.793" y1="38.0002" x2="0.000328771" y2="38.0002" gradientUnits="userSpaceOnUse">
<stop stop-color="#7519FF"/>
<stop offset="1" stop-color="#9C59FF"/>
</linearGradient>
<linearGradient id="paint1_linear_1_863" x1="20.5" y1="38" x2="0.000298022" y2="38.3999" gradientUnits="userSpaceOnUse">
<stop stop-color="#FE7D0D"/>
<stop offset="1" stop-color="#FFE5AB"/>
</linearGradient>
<clipPath id="clip0_1_863">
<rect width="13.7499" height="14.3749" fill="white" transform="translate(18.6241 31.6251)"/>
</clipPath>
</defs>
</svg>
